<mxfile host="Electron" modified="2024-01-28T11:44:25.077Z" agent="Mozilla/5.0 (Windows NT 10.0; Win64; x64) AppleWebKit/537.36 (KHTML, like Gecko) draw.io/23.0.2 Chrome/120.0.6099.109 Electron/28.1.0 Safari/537.36" etag="WqqFNzfEdLoRBGj_DF2h" version="23.0.2" type="device">
  <diagram name="Page-1" id="3FU2BRUodX3esNhyQgwJ">
    <mxGraphModel dx="977" dy="671" grid="1" gridSize="10" guides="1" tooltips="1" connect="1" arrows="1" fold="1" page="1" pageScale="1" pageWidth="850" pageHeight="1100" math="0" shadow="0">
      <root>
        <mxCell id="0" />
        <mxCell id="1" parent="0" />
        <mxCell id="FEGtML5SbePRzF_W_EjW-7" value="&lt;font face=&quot;consolas&quot;&gt;std::vector&lt;/font&gt;" style="swimlane;whiteSpace=wrap;html=1;startSize=30;fillColor=#ffe6cc;strokeColor=#d79b00;" parent="1" vertex="1">
          <mxGeometry x="120" y="160" width="120" height="312" as="geometry">
            <mxRectangle x="330" y="170" width="110" height="30" as="alternateBounds" />
          </mxGeometry>
        </mxCell>
        <mxCell id="8TEMe9xLt-exDmK_KVjd-13" value="... ..." style="rounded=0;whiteSpace=wrap;html=1;fillColor=#EEEEEE;strokeColor=#36393D;fontFamily=consolas;" parent="FEGtML5SbePRzF_W_EjW-7" vertex="1">
          <mxGeometry x="1" y="291" width="118" height="20" as="geometry" />
        </mxCell>
        <mxCell id="8TEMe9xLt-exDmK_KVjd-12" value="0" style="rounded=0;whiteSpace=wrap;html=1;fillColor=#EEEEEE;strokeColor=#36393D;fontFamily=consolas;" parent="FEGtML5SbePRzF_W_EjW-7" vertex="1">
          <mxGeometry x="1" y="271" width="118" height="20" as="geometry" />
        </mxCell>
        <mxCell id="8TEMe9xLt-exDmK_KVjd-11" value="1" style="rounded=0;whiteSpace=wrap;html=1;fillColor=#EEEEEE;strokeColor=#36393D;fontFamily=consolas;" parent="FEGtML5SbePRzF_W_EjW-7" vertex="1">
          <mxGeometry x="1" y="251" width="118" height="20" as="geometry" />
        </mxCell>
        <mxCell id="8TEMe9xLt-exDmK_KVjd-10" value="2" style="rounded=0;whiteSpace=wrap;html=1;fillColor=#EEEEEE;strokeColor=#36393D;fontFamily=consolas;" parent="FEGtML5SbePRzF_W_EjW-7" vertex="1">
          <mxGeometry x="1" y="231" width="118" height="20" as="geometry" />
        </mxCell>
        <mxCell id="8TEMe9xLt-exDmK_KVjd-9" value="3" style="rounded=0;whiteSpace=wrap;html=1;fillColor=#EEEEEE;strokeColor=#36393D;fontFamily=consolas;" parent="FEGtML5SbePRzF_W_EjW-7" vertex="1">
          <mxGeometry x="1" y="211" width="118" height="20" as="geometry" />
        </mxCell>
        <mxCell id="8TEMe9xLt-exDmK_KVjd-8" value="4" style="rounded=0;whiteSpace=wrap;html=1;fillColor=#EEEEEE;strokeColor=#36393D;fontFamily=consolas;" parent="FEGtML5SbePRzF_W_EjW-7" vertex="1">
          <mxGeometry x="1" y="191" width="118" height="20" as="geometry" />
        </mxCell>
        <mxCell id="8TEMe9xLt-exDmK_KVjd-7" value="5" style="rounded=0;whiteSpace=wrap;html=1;fillColor=#fad9d5;strokeColor=#ae4132;fontFamily=consolas;" parent="FEGtML5SbePRzF_W_EjW-7" vertex="1">
          <mxGeometry x="1" y="171" width="118" height="20" as="geometry" />
        </mxCell>
        <mxCell id="8TEMe9xLt-exDmK_KVjd-6" value="6" style="rounded=0;whiteSpace=wrap;html=1;fillColor=#b1ddf0;strokeColor=#10739e;fontFamily=consolas;" parent="FEGtML5SbePRzF_W_EjW-7" vertex="1">
          <mxGeometry x="1" y="151" width="118" height="20" as="geometry" />
        </mxCell>
        <mxCell id="8TEMe9xLt-exDmK_KVjd-5" value="7" style="rounded=0;whiteSpace=wrap;html=1;fillColor=#EEEEEE;strokeColor=#36393D;fontFamily=consolas;" parent="FEGtML5SbePRzF_W_EjW-7" vertex="1">
          <mxGeometry x="1" y="131" width="118" height="20" as="geometry" />
        </mxCell>
        <mxCell id="8TEMe9xLt-exDmK_KVjd-4" value="8" style="rounded=0;whiteSpace=wrap;html=1;fillColor=#EEEEEE;strokeColor=#36393D;fontFamily=consolas;" parent="FEGtML5SbePRzF_W_EjW-7" vertex="1">
          <mxGeometry x="1" y="111" width="118" height="20" as="geometry" />
        </mxCell>
        <mxCell id="8TEMe9xLt-exDmK_KVjd-3" value="9" style="rounded=0;whiteSpace=wrap;html=1;fillColor=#EEEEEE;strokeColor=#36393D;fontFamily=consolas;" parent="FEGtML5SbePRzF_W_EjW-7" vertex="1">
          <mxGeometry x="1" y="91" width="118" height="20" as="geometry" />
        </mxCell>
        <mxCell id="8TEMe9xLt-exDmK_KVjd-2" value="10" style="rounded=0;whiteSpace=wrap;html=1;fillColor=#EEEEEE;strokeColor=#36393D;fontFamily=consolas;" parent="FEGtML5SbePRzF_W_EjW-7" vertex="1">
          <mxGeometry x="1" y="71" width="118" height="20" as="geometry" />
        </mxCell>
        <mxCell id="8TEMe9xLt-exDmK_KVjd-1" value="11" style="rounded=0;whiteSpace=wrap;html=1;fillColor=#EEEEEE;strokeColor=#36393D;fontFamily=consolas;" parent="FEGtML5SbePRzF_W_EjW-7" vertex="1">
          <mxGeometry x="1" y="51" width="118" height="20" as="geometry" />
        </mxCell>
        <mxCell id="FEGtML5SbePRzF_W_EjW-19" value="... ..." style="rounded=0;whiteSpace=wrap;html=1;fillColor=#EEEEEE;strokeColor=#36393D;fontFamily=consolas;" parent="FEGtML5SbePRzF_W_EjW-7" vertex="1">
          <mxGeometry x="1" y="31" width="118" height="20" as="geometry" />
        </mxCell>
        <mxCell id="WQ2uwlhCMLTjnrcNuyeZ-1" value="" style="endArrow=classic;html=1;rounded=0;" parent="1" source="WQ2uwlhCMLTjnrcNuyeZ-3" target="8TEMe9xLt-exDmK_KVjd-7" edge="1">
          <mxGeometry width="50" height="50" relative="1" as="geometry">
            <mxPoint x="90" y="340" as="sourcePoint" />
            <mxPoint x="120" y="340" as="targetPoint" />
          </mxGeometry>
        </mxCell>
        <mxCell id="WQ2uwlhCMLTjnrcNuyeZ-3" value="&lt;font face=&quot;consolas&quot;&gt;pvec&lt;/font&gt;" style="text;html=1;strokeColor=none;fillColor=none;align=center;verticalAlign=middle;whiteSpace=wrap;rounded=0;" parent="1" vertex="1">
          <mxGeometry x="50" y="331" width="40" height="20" as="geometry" />
        </mxCell>
        <mxCell id="WQ2uwlhCMLTjnrcNuyeZ-4" value="" style="endArrow=classic;html=1;rounded=0;" parent="1" source="WQ2uwlhCMLTjnrcNuyeZ-5" target="8TEMe9xLt-exDmK_KVjd-6" edge="1">
          <mxGeometry width="50" height="50" relative="1" as="geometry">
            <mxPoint x="90" y="320" as="sourcePoint" />
            <mxPoint x="121" y="320" as="targetPoint" />
          </mxGeometry>
        </mxCell>
        <mxCell id="WQ2uwlhCMLTjnrcNuyeZ-5" value="&lt;font face=&quot;consolas&quot;&gt;next&lt;/font&gt;" style="text;html=1;strokeColor=none;fillColor=none;align=center;verticalAlign=middle;whiteSpace=wrap;rounded=0;" parent="1" vertex="1">
          <mxGeometry x="50" y="311" width="40" height="20" as="geometry" />
        </mxCell>
        <mxCell id="WQ2uwlhCMLTjnrcNuyeZ-7" value="&lt;font face=&quot;consolas&quot;&gt;std::list&lt;/font&gt;" style="swimlane;whiteSpace=wrap;html=1;startSize=30;fillColor=#ffe6cc;strokeColor=#d79b00;" parent="1" vertex="1">
          <mxGeometry x="320" y="160" width="120" height="312" as="geometry">
            <mxRectangle x="330" y="170" width="110" height="30" as="alternateBounds" />
          </mxGeometry>
        </mxCell>
        <mxCell id="WQ2uwlhCMLTjnrcNuyeZ-9" value="... ..." style="rounded=0;whiteSpace=wrap;html=1;fillColor=#EEEEEE;strokeColor=#36393D;fontFamily=consolas;" parent="WQ2uwlhCMLTjnrcNuyeZ-7" vertex="1">
          <mxGeometry x="1" y="291" width="118" height="20" as="geometry" />
        </mxCell>
        <mxCell id="WQ2uwlhCMLTjnrcNuyeZ-10" value="0" style="rounded=0;whiteSpace=wrap;html=1;fillColor=#EEEEEE;strokeColor=#36393D;fontFamily=consolas;" parent="WQ2uwlhCMLTjnrcNuyeZ-7" vertex="1">
          <mxGeometry x="1" y="271" width="118" height="20" as="geometry" />
        </mxCell>
        <mxCell id="WQ2uwlhCMLTjnrcNuyeZ-11" value="13" style="rounded=0;whiteSpace=wrap;html=1;fillColor=#EEEEEE;strokeColor=#36393D;fontFamily=consolas;" parent="WQ2uwlhCMLTjnrcNuyeZ-7" vertex="1">
          <mxGeometry x="1" y="251" width="118" height="20" as="geometry" />
        </mxCell>
        <mxCell id="WQ2uwlhCMLTjnrcNuyeZ-12" value="11" style="rounded=0;whiteSpace=wrap;html=1;fillColor=#b1ddf0;strokeColor=#10739e;fontFamily=consolas;" parent="WQ2uwlhCMLTjnrcNuyeZ-7" vertex="1">
          <mxGeometry x="1" y="231" width="118" height="20" as="geometry" />
        </mxCell>
        <mxCell id="WQ2uwlhCMLTjnrcNuyeZ-13" value="26" style="rounded=0;whiteSpace=wrap;html=1;fillColor=#EEEEEE;strokeColor=#36393D;fontFamily=consolas;" parent="WQ2uwlhCMLTjnrcNuyeZ-7" vertex="1">
          <mxGeometry x="1" y="211" width="118" height="20" as="geometry" />
        </mxCell>
        <mxCell id="WQ2uwlhCMLTjnrcNuyeZ-14" value="17" style="rounded=0;whiteSpace=wrap;html=1;fillColor=#EEEEEE;strokeColor=#36393D;fontFamily=consolas;" parent="WQ2uwlhCMLTjnrcNuyeZ-7" vertex="1">
          <mxGeometry x="1" y="191" width="118" height="20" as="geometry" />
        </mxCell>
        <mxCell id="WQ2uwlhCMLTjnrcNuyeZ-15" value="10" style="rounded=0;whiteSpace=wrap;html=1;fillColor=#fad9d5;strokeColor=#ae4132;fontFamily=consolas;" parent="WQ2uwlhCMLTjnrcNuyeZ-7" vertex="1">
          <mxGeometry x="1" y="171" width="118" height="20" as="geometry" />
        </mxCell>
        <mxCell id="WQ2uwlhCMLTjnrcNuyeZ-16" value="32" style="rounded=0;whiteSpace=wrap;html=1;fillColor=#EEEEEE;strokeColor=#36393D;fontFamily=consolas;" parent="WQ2uwlhCMLTjnrcNuyeZ-7" vertex="1">
          <mxGeometry x="1" y="151" width="118" height="20" as="geometry" />
        </mxCell>
        <mxCell id="WQ2uwlhCMLTjnrcNuyeZ-17" value="18" style="rounded=0;whiteSpace=wrap;html=1;fillColor=#EEEEEE;strokeColor=#36393D;fontFamily=consolas;" parent="WQ2uwlhCMLTjnrcNuyeZ-7" vertex="1">
          <mxGeometry x="1" y="131" width="118" height="20" as="geometry" />
        </mxCell>
        <mxCell id="WQ2uwlhCMLTjnrcNuyeZ-18" value="8" style="rounded=0;whiteSpace=wrap;html=1;fillColor=#EEEEEE;strokeColor=#36393D;fontFamily=consolas;" parent="WQ2uwlhCMLTjnrcNuyeZ-7" vertex="1">
          <mxGeometry x="1" y="111" width="118" height="20" as="geometry" />
        </mxCell>
        <mxCell id="WQ2uwlhCMLTjnrcNuyeZ-19" value="15" style="rounded=0;whiteSpace=wrap;html=1;fillColor=#EEEEEE;strokeColor=#36393D;fontFamily=consolas;" parent="WQ2uwlhCMLTjnrcNuyeZ-7" vertex="1">
          <mxGeometry x="1" y="91" width="118" height="20" as="geometry" />
        </mxCell>
        <mxCell id="WQ2uwlhCMLTjnrcNuyeZ-20" value="11" style="rounded=0;whiteSpace=wrap;html=1;fillColor=#EEEEEE;strokeColor=#36393D;fontFamily=consolas;" parent="WQ2uwlhCMLTjnrcNuyeZ-7" vertex="1">
          <mxGeometry x="1" y="71" width="118" height="20" as="geometry" />
        </mxCell>
        <mxCell id="WQ2uwlhCMLTjnrcNuyeZ-21" value="14" style="rounded=0;whiteSpace=wrap;html=1;fillColor=#EEEEEE;strokeColor=#36393D;fontFamily=consolas;" parent="WQ2uwlhCMLTjnrcNuyeZ-7" vertex="1">
          <mxGeometry x="1" y="51" width="118" height="20" as="geometry" />
        </mxCell>
        <mxCell id="WQ2uwlhCMLTjnrcNuyeZ-22" value="... ..." style="rounded=0;whiteSpace=wrap;html=1;fillColor=#EEEEEE;strokeColor=#36393D;fontFamily=consolas;" parent="WQ2uwlhCMLTjnrcNuyeZ-7" vertex="1">
          <mxGeometry x="1" y="31" width="118" height="20" as="geometry" />
        </mxCell>
        <mxCell id="WQ2uwlhCMLTjnrcNuyeZ-23" value="" style="endArrow=classic;html=1;rounded=0;" parent="1" source="WQ2uwlhCMLTjnrcNuyeZ-24" target="WQ2uwlhCMLTjnrcNuyeZ-15" edge="1">
          <mxGeometry width="50" height="50" relative="1" as="geometry">
            <mxPoint x="290" y="340" as="sourcePoint" />
            <mxPoint x="320" y="340" as="targetPoint" />
          </mxGeometry>
        </mxCell>
        <mxCell id="WQ2uwlhCMLTjnrcNuyeZ-24" value="&lt;font face=&quot;consolas&quot;&gt;plst&lt;/font&gt;" style="text;html=1;strokeColor=none;fillColor=none;align=center;verticalAlign=middle;whiteSpace=wrap;rounded=0;" parent="1" vertex="1">
          <mxGeometry x="250" y="331" width="40" height="20" as="geometry" />
        </mxCell>
        <mxCell id="WQ2uwlhCMLTjnrcNuyeZ-25" value="" style="endArrow=classic;html=1;rounded=0;" parent="1" source="WQ2uwlhCMLTjnrcNuyeZ-26" target="WQ2uwlhCMLTjnrcNuyeZ-12" edge="1">
          <mxGeometry width="50" height="50" relative="1" as="geometry">
            <mxPoint x="290" y="320" as="sourcePoint" />
            <mxPoint x="321" y="320" as="targetPoint" />
          </mxGeometry>
        </mxCell>
        <mxCell id="WQ2uwlhCMLTjnrcNuyeZ-26" value="&lt;font face=&quot;consolas&quot;&gt;next&lt;/font&gt;" style="text;html=1;strokeColor=none;fillColor=none;align=center;verticalAlign=middle;whiteSpace=wrap;rounded=0;" parent="1" vertex="1">
          <mxGeometry x="250" y="392" width="40" height="18" as="geometry" />
        </mxCell>
        <mxCell id="WQ2uwlhCMLTjnrcNuyeZ-27" value="&lt;font face=&quot;consolas&quot;&gt;std::deque&lt;/font&gt;" style="swimlane;whiteSpace=wrap;html=1;startSize=30;fillColor=#ffe6cc;strokeColor=#d79b00;" parent="1" vertex="1">
          <mxGeometry x="520" y="160" width="120" height="312" as="geometry">
            <mxRectangle x="330" y="170" width="110" height="30" as="alternateBounds" />
          </mxGeometry>
        </mxCell>
        <mxCell id="WQ2uwlhCMLTjnrcNuyeZ-29" value="... ..." style="rounded=0;whiteSpace=wrap;html=1;fillColor=#EEEEEE;strokeColor=#36393D;fontFamily=consolas;" parent="WQ2uwlhCMLTjnrcNuyeZ-27" vertex="1">
          <mxGeometry x="1" y="291" width="118" height="20" as="geometry" />
        </mxCell>
        <mxCell id="WQ2uwlhCMLTjnrcNuyeZ-30" value="14" style="rounded=0;whiteSpace=wrap;html=1;fillColor=#EEEEEE;strokeColor=#36393D;fontFamily=consolas;" parent="WQ2uwlhCMLTjnrcNuyeZ-27" vertex="1">
          <mxGeometry x="1" y="271" width="118" height="20" as="geometry" />
        </mxCell>
        <mxCell id="WQ2uwlhCMLTjnrcNuyeZ-31" value="15" style="rounded=0;whiteSpace=wrap;html=1;fillColor=#EEEEEE;strokeColor=#36393D;fontFamily=consolas;" parent="WQ2uwlhCMLTjnrcNuyeZ-27" vertex="1">
          <mxGeometry x="1" y="251" width="118" height="20" as="geometry" />
        </mxCell>
        <mxCell id="WQ2uwlhCMLTjnrcNuyeZ-32" value="0" style="rounded=0;whiteSpace=wrap;html=1;fillColor=#EEEEEE;strokeColor=#36393D;fontFamily=consolas;" parent="WQ2uwlhCMLTjnrcNuyeZ-27" vertex="1">
          <mxGeometry x="1" y="231" width="118" height="20" as="geometry" />
        </mxCell>
        <mxCell id="WQ2uwlhCMLTjnrcNuyeZ-33" value="1" style="rounded=0;whiteSpace=wrap;html=1;fillColor=#EEEEEE;strokeColor=#36393D;fontFamily=consolas;" parent="WQ2uwlhCMLTjnrcNuyeZ-27" vertex="1">
          <mxGeometry x="1" y="211" width="118" height="20" as="geometry" />
        </mxCell>
        <mxCell id="WQ2uwlhCMLTjnrcNuyeZ-34" value="2" style="rounded=0;whiteSpace=wrap;html=1;fillColor=#EEEEEE;strokeColor=#36393D;fontFamily=consolas;" parent="WQ2uwlhCMLTjnrcNuyeZ-27" vertex="1">
          <mxGeometry x="1" y="191" width="118" height="20" as="geometry" />
        </mxCell>
        <mxCell id="WQ2uwlhCMLTjnrcNuyeZ-35" value="3" style="rounded=0;whiteSpace=wrap;html=1;fillColor=#fad9d5;strokeColor=#ae4132;fontFamily=consolas;" parent="WQ2uwlhCMLTjnrcNuyeZ-27" vertex="1">
          <mxGeometry x="1" y="171" width="118" height="20" as="geometry" />
        </mxCell>
        <mxCell id="WQ2uwlhCMLTjnrcNuyeZ-36" value="8" style="rounded=0;whiteSpace=wrap;html=1;fillColor=#EEEEEE;strokeColor=#36393D;fontFamily=consolas;" parent="WQ2uwlhCMLTjnrcNuyeZ-27" vertex="1">
          <mxGeometry x="1" y="151" width="118" height="20" as="geometry" />
        </mxCell>
        <mxCell id="WQ2uwlhCMLTjnrcNuyeZ-37" value="9" style="rounded=0;whiteSpace=wrap;html=1;fillColor=#EEEEEE;strokeColor=#36393D;fontFamily=consolas;" parent="WQ2uwlhCMLTjnrcNuyeZ-27" vertex="1">
          <mxGeometry x="1" y="131" width="118" height="20" as="geometry" />
        </mxCell>
        <mxCell id="WQ2uwlhCMLTjnrcNuyeZ-38" value="10" style="rounded=0;whiteSpace=wrap;html=1;fillColor=#EEEEEE;strokeColor=#36393D;fontFamily=consolas;" parent="WQ2uwlhCMLTjnrcNuyeZ-27" vertex="1">
          <mxGeometry x="1" y="110" width="118" height="21" as="geometry" />
        </mxCell>
        <mxCell id="WQ2uwlhCMLTjnrcNuyeZ-39" value="11" style="rounded=0;whiteSpace=wrap;html=1;fillColor=#EEEEEE;strokeColor=#36393D;fontFamily=consolas;" parent="WQ2uwlhCMLTjnrcNuyeZ-27" vertex="1">
          <mxGeometry x="1" y="91" width="118" height="20" as="geometry" />
        </mxCell>
        <mxCell id="WQ2uwlhCMLTjnrcNuyeZ-40" value="4" style="rounded=0;whiteSpace=wrap;html=1;fillColor=#b1ddf0;strokeColor=#10739e;fontFamily=consolas;" parent="WQ2uwlhCMLTjnrcNuyeZ-27" vertex="1">
          <mxGeometry x="1" y="71" width="118" height="20" as="geometry" />
        </mxCell>
        <mxCell id="WQ2uwlhCMLTjnrcNuyeZ-41" value="5" style="rounded=0;whiteSpace=wrap;html=1;fillColor=#EEEEEE;strokeColor=#36393D;fontFamily=consolas;" parent="WQ2uwlhCMLTjnrcNuyeZ-27" vertex="1">
          <mxGeometry x="1" y="51" width="118" height="20" as="geometry" />
        </mxCell>
        <mxCell id="WQ2uwlhCMLTjnrcNuyeZ-42" value="... ..." style="rounded=0;whiteSpace=wrap;html=1;fillColor=#EEEEEE;strokeColor=#36393D;fontFamily=consolas;" parent="WQ2uwlhCMLTjnrcNuyeZ-27" vertex="1">
          <mxGeometry x="1" y="31" width="118" height="20" as="geometry" />
        </mxCell>
        <mxCell id="WQ2uwlhCMLTjnrcNuyeZ-43" value="" style="endArrow=classic;html=1;rounded=0;" parent="1" source="WQ2uwlhCMLTjnrcNuyeZ-44" target="WQ2uwlhCMLTjnrcNuyeZ-35" edge="1">
          <mxGeometry width="50" height="50" relative="1" as="geometry">
            <mxPoint x="490" y="340" as="sourcePoint" />
            <mxPoint x="520" y="340" as="targetPoint" />
          </mxGeometry>
        </mxCell>
        <mxCell id="WQ2uwlhCMLTjnrcNuyeZ-44" value="&lt;font face=&quot;consolas&quot;&gt;pdec&lt;/font&gt;" style="text;html=1;strokeColor=none;fillColor=none;align=center;verticalAlign=middle;whiteSpace=wrap;rounded=0;" parent="1" vertex="1">
          <mxGeometry x="450" y="331" width="40" height="20" as="geometry" />
        </mxCell>
        <mxCell id="WQ2uwlhCMLTjnrcNuyeZ-45" value="" style="endArrow=classic;html=1;rounded=0;" parent="1" source="WQ2uwlhCMLTjnrcNuyeZ-46" target="WQ2uwlhCMLTjnrcNuyeZ-40" edge="1">
          <mxGeometry width="50" height="50" relative="1" as="geometry">
            <mxPoint x="490" y="320" as="sourcePoint" />
            <mxPoint x="521" y="320" as="targetPoint" />
          </mxGeometry>
        </mxCell>
        <mxCell id="WQ2uwlhCMLTjnrcNuyeZ-46" value="&lt;font face=&quot;consolas&quot;&gt;next&lt;/font&gt;" style="text;html=1;strokeColor=none;fillColor=none;align=center;verticalAlign=middle;whiteSpace=wrap;rounded=0;" parent="1" vertex="1">
          <mxGeometry x="450" y="231" width="40" height="20" as="geometry" />
        </mxCell>
      </root>
    </mxGraphModel>
  </diagram>
</mxfile>
